# AST/ASF file generated using VICON BodyLanguage
# -----------------------------------------------
:version 1.10
:name VICON
:units
  mass 1.0
  length 0.45
  angle deg
:documentation
   .ast/.asf automatically generated from VICON data using
   VICON BodyBuilder and BodyLanguage model FoxedUp or BRILLIANT.MOD
:root
   order TX TY TZ RX RY RZ
   axis XYZ
   position 0 0 0  
   orientation 0 0 0 
:bonedata
  begin
     id 1 
     name lhipjoint
     direction 0.567149 -0.783011 0.255413 
     length 2.28399 
     axis 0 0 0  XYZ
  end
  begin
     id 2 
     name lfemur
     direction 0.34202 -0.939693 0  
     length 7.34031  
     axis 0 0 20  XYZ
    dof rx ry rz
    limits (-160.0 20.0)
           (-70.0 70.0)
           (-60.0 70.0)
  end
  begin
     id 3 
     name ltibia
     direction 0.34202 -0.939693 0   
     length 6.9833   
     axis 0 0 20   XYZ
    dof rx
    limits (-10.0 170.0)
  end
  begin
     id 4 
     name lfoot
     direction 0.136498 -0.375025 0.91691   
     length 2.33665   
     axis -90 7.62852e-016 20   XYZ
    dof rx rz
    limits (-45.0 90.0)
           (-70.0 20.0)
  end
  begin
     id 5 
     name ltoes
     direction 1.5367e-011 -4.21617e-011 1   
     length 1.15039   
     axis -90 7.62852e-016 20   XYZ
    dof rx
    limits (-90.0 20.0)
  end
  begin
     id 6 
     name rhipjoint
     direction -0.602854 -0.758518 0.247423   
     length 2.35775  
     axis 0 0 0  XYZ 
  end
  begin
     id 7 
     name rfemur
     direction -0.34202 -0.939693 0   
     length 7.43932   
     axis 0 0 -20   XYZ
    dof rx ry rz
    limits (-160.0 20.0)
           (-70.0 70.0)
           (-70.0 60.0)
  end
  begin
     id 8 
     name rtibia
     direction -0.34202 -0.939693 0   
     length 7.11893   
     axis 0 0 -20   XYZ
    dof rx
    limits (-10.0 170.0)
 end
 begin
     id 9 
     name rfoot
     direction -0.131771 -0.362037 0.922803   
     length 2.53019  
     axis -90 -7.62852e-016 -20   XYZ
    dof rx rz
    limits (-45.0 90.0)
           (-20.0 70.0)
  end
  begin
     id 10 
     name rtoes
     direction -1.53733e-011 -4.21932e-011 1   
     length 1.24596   
     axis -90 -7.62852e-016 -20   XYZ
    dof rx
    limits (-90.0 20.0)
  end
  begin
     id 11 
     name lowerback
     direction 0.0235427 0.999023 -0.0374125   
     length 2.21768   
     axis 0 0 0   XYZ
    dof rx ry rz
    limits (-20.0 45.0)
           (-30.0 30.0)
           (-30.0 30.0)
  end
  begin
     id 12 
     name upperback
     direction 0.0302156 0.996818 -0.073759   
     length 2.20352   
     axis 0 0 0   XYZ
    dof rx ry rz
    limits (-20.0 45.0)
           (-30.0 30.0)
           (-30.0 30.0)
  end
  begin
     id 13 
     name thorax
     direction 0.0187169 0.998235 -0.0563532   
     length 2.22103   
     axis 0 0 0   XYZ
    dof rx ry rz
    limits (-20.0 45.0)
           (-30.0 30.0)
           (-30.0 30.0)
  end
  begin
     id 14 
     name lowerneck
     direction -0.119528 0.987423 0.103481   
     length 1.72948   
     axis 0 0 0   XYZ
    dof rx ry rz
    limits (-20.0 45.0)
           (-30.0 30.0)
           (-30.0 30.0)
  end
  begin
     id 15 
     name upperneck
     direction 0.248049 0.963095 -0.104496   
     length 1.74979   
     axis 0 0 0   XYZ
    dof rx ry rz
    limits (-20.0 45.0)
           (-30.0 30.0)
           (-30.0 30.0)
  end
  begin
     id 16
     name head
     direction 0.0903589 0.994284 -0.056876  
     length 1.78268  
     axis 0 0 0   XYZ
    dof rx ry rz
    limits (-20.0 45.0)
           (-30.0 30.0)
           (-30.0 30.0)
  end
  begin
     id 17 
     name lclavicle
     direction 0.946008 0.242039 -0.215608  
     length 3.80783  
     axis 0 0 0   XYZ
    dof ry rz
    limits (-20.0 10.0)
           (0.0 20.0)
  end
  begin
     id 18 
     name lhumerus
     direction 1 -4.48991e-011 -2.25695e-027   
     length 4.83125   
     axis 180 -30 -90   XYZ
    dof rx ry rz
    limits (-60.0 90.0)
           (-90.0 90.0)
           (-90.0 90.0)
  end
  begin
     id 19
     name lradius
     direction 0.999991 0.00366712 -0.00211721   
     length 3.00391   
     axis 180 -30 -90   XYZ
    dof rx
    limits (-10.0 170.0)
  end
  begin
     id 20
     name lwrist
     direction 0.999991 0.00393016 -0.00141978   
     length 1.50195   
     axis -1.00488e-014 90 90   XYZ
    dof ry
    limits (-180.0 0.0)
 end
  begin
     id 21 
     name lhand
     direction 1 -4.49123e-011 2.72098e-026   
     length 1.2717   
     axis -1.73687e-014 90 90   XYZ
    dof rx rz
    limits (-90.0 90.0)
           (-45.0 45.0)
  end
  begin
     id 22 
     name lfingers
     direction 1 -4.48678e-011 5.4479e-026   
     length 1.02528   
     axis -3.47372e-014 90 90   XYZ
    dof rx
    limits (0.0 90.0)
  end
  begin
     id 23
     name lthumb
     direction 0.707107 -6.34851e-011 0.707107   
     length 1.4721   
     axis -90 45 -1.62303e-014   XYZ
    dof rx rz
    limits (-45.0 45.0)
           (-45.0 45.0)
  end
  begin
     id 24 
     name rclavicle
     direction -0.981723 0.189447 -0.0181673   
     length 3.74989  
     axis 0 0 0   XYZ 
    dof ry rz
    limits (-10.0 20.0)
           (-20.0 0.0)
  end
  begin
     id 25 
     name rhumerus
     direction -1 -4.48985e-011 2.38206e-027  
     length 4.61118   
     axis 180 30 90   XYZ
    dof rx ry rz
    limits (-90.0 60.0)
           (-90.0 90.0)
           (-90.0 90.0)
  end
  begin
     id 26 
     name rradius
     direction -1 -4.48977e-011 7.41019e-027   
     length 2.91491   
     axis 180 30 90   XYZ
    dof rx
    limits (-10.0 170.0)
  end
  begin
     id 27 
     name rwrist
     direction -1 -4.48549e-011 1.3624e-026   
     length 1.45745   
     axis -1.00488e-014 -90 -90   XYZ
    dof ry
    limits (-180.0 0.0)
  end
  begin
     id 28
     name rhand
     direction -1 -4.49107e-011 2.72109e-026   
     length 1.30769   
     axis -1.73687e-014 -90 -90   XYZ
    dof rx rz
    limits (-90.0 90.0)
           (-45.0 45.0)
  end
  begin
     id 29
     name rfingers
     direction -1 -4.48919e-011 5.44468e-026   
     length 1.05429   
     axis -3.47372e-014 -90 -90   XYZ
    dof rx
    limits (0.0 90.0)
  end
  begin
     id 30
     name rthumb
     direction -0.707107 -6.35315e-011 0.707107   
     length 1.51376   
     axis -90 -45 1.62303e-014   XYZ
    dof rx rz
    limits (-45.0 45.0)
           (-45.0 45.0)
  end
:hierarchy
  begin
    root lhipjoint rhipjoint lowerback
    lhipjoint lfemur
    lfemur ltibia
    ltibia lfoot
    lfoot ltoes
    rhipjoint rfemur
    rfemur rtibia
    rtibia rfoot
    rfoot rtoes
    lowerback upperback
    upperback thorax
    thorax lowerneck lclavicle rclavicle
    lowerneck upperneck
    upperneck head
    lclavicle lhumerus
    lhumerus lradius
    lradius lwrist
    lwrist lhand lthumb
    lhand lfingers
    rclavicle rhumerus
    rhumerus rradius
    rradius rwrist
    rwrist rhand rthumb
    rhand rfingers
  end

#!OML:ASF X:\für Bonn\!DataBase\2005_08_11_Bastian_Final\c3d\Bastian.ASF
:FULLY-SPECIFIED
:DEGREES
1
root 0.0679366 17.5525 1.89858 168.686 -4.24327 -175.299
lowerback 12.475 -1.30824 2.35822
upperback 6.63728 -2.41902 2.93577
thorax 0.0162433 -1.61644 2.01847
lowerneck -3.58225 -5.90561 -11.1021
upperneck -0.413128 -7.51791 9.8684
head 1.26346 -3.63849 4.55051
rclavicle -2.88238e-015 2.26615e-014
rhumerus -53.2281 57.5709 -103.496
rradius 37.6454
rwrist -96.1504
rhand -53.8503 -27.592
rfingers 7.12502
rthumb -26.28 -55.7918
lclavicle -2.88238e-015 2.26615e-014
lhumerus -44.0109 -32.5982 94.3836
lradius 20.0203
lwrist 44.326
lhand -41.0517 26.5631
lfingers 7.12502
lthumb -13.9815 56.0729
rfemur 4.24959 1.27422 27.4124
rtibia 29.4375
rfoot -16.5849 -20.5702
rtoes 0.104342
lfemur 7.84683 0.723954 -14.3415
ltibia 21.4646
lfoot -10.6773 -5.13576
ltoes -11.9501
2
root 0.068576 17.5514 1.94511 168.409 -4.1556 -175.299
lowerback 12.8143 -1.21946 2.43792
upperback 7.02109 -2.37213 2.83224
thorax 0.231325 -1.62154 1.86388
lowerneck -4.96292 -6.10192 -10.5636
upperneck -0.185284 -7.66519 9.65227
head 1.54009 -3.67106 4.34792
rclavicle 9.44227e-015 -1.23246e-014
rhumerus -54.1072 62.0147 -108.133
rradius 38.8687
rwrist -97.4527
rhand -54.367 -27.3855
rfingers 7.12502
rthumb -26.7745 -55.5106
lclavicle 9.44227e-015 -1.23246e-014
lhumerus -42.5212 -35.0364 97.7712
lradius 20.5067
lwrist 45.1324
lhand -41.3612 26.838
lfingers 7.12502
lthumb -14.2797 56.327
rfemur 4.36791 1.1911 27.3725
rtibia 29.4568
rfoot -16.4633 -20.3815
rtoes 0.279938
lfemur 8.00517 0.760294 -14.3427
ltibia 21.4578
lfoot -10.5565 -5.07419
ltoes -12.1823
3
root 0.0696395 17.5504 1.99076 168.125 -4.04787 -175.305
lowerback 13.1375 -1.11863 2.50414
upperback 7.4024 -2.31331 2.72116
thorax 0.45409 -1.62119 1.70649
lowerneck -6.26931 -6.27218 -10.0284
upperneck 0.017904 -7.79579 9.49249
head 1.79674 -3.69484 4.16652
rclavicle 6.65929e-015 -2.90226e-014
rhumerus -54.6267 66.3345 -112.037
rradius 40.0196
rwrist -98.3257
rhand -54.9337 -26.7351
rfingers 7.12502
rthumb -27.3167 -54.776
lclavicle 6.65929e-015 -2.90226e-014
lhumerus -40.9829 -38.065 100.926
lradius 21.0254
lwrist 45.943
lhand -41.8383 27.3164
lfingers 7.12502
lthumb -14.7394 56.7724
rfemur 4.50281 1.1658 27.3449
rtibia 29.4734
rfoot -16.3434 -20.2506
rtoes 0.343741
lfemur 8.18014 0.806585 -14.3476
ltibia 21.4506
lfoot -10.445 -5.00149
ltoes -12.3539
4
root 0.0700153 17.5496 2.036 167.847 -3.9528 -175.274
lowerback 13.4676 -1.02798 2.62458
upperback 7.73249 -2.25312 2.60461
thorax 0.61925 -1.61541 1.51411
lowerneck -7.41645 -6.42066 -9.45254
upperneck 0.220053 -7.92795 9.31339
head 2.02351 -3.72372 3.97741
rclavicle 1.68967e-015 1.47101e-014
rhumerus -53.0905 69.7705 -113.491
rradius 40.9145
rwrist -98.0305
rhand -55.3278 -25.8939
rfingers 7.12502
rthumb -27.6936 -53.8749
lclavicle 1.68967e-015 1.47101e-014
lhumerus -39.7242 -42.1447 104.191
lradius 21.5837
lwrist 47.3436
lhand -42.4648 27.8931
lfingers 7.12502
lthumb -15.3429 57.3039
rfemur 4.62232 1.07574 27.3372
rtibia 29.4862
rfoot -16.2043 -20.0818
rtoes 0.457557
lfemur 8.33657 0.821198 -14.3139
ltibia 21.4465
lfoot -10.322 -4.93527
ltoes -12.3465
5
root 0.0703438 17.5493 2.07746 167.625 -3.85113 -175.282
lowerback 13.6914 -0.932185 2.66886
upperback 8.03823 -2.19255 2.52
thorax 0.82005 -1.60951 1.39368
lowerneck -8.47755 -6.54935 -8.96959
upperneck 0.42035 -8.04515 9.1378
head 2.23677 -3.74781 3.80752
rclavicle -1.45113e-014 2.82274e-014
rhumerus -48.4556 72.355 -111.5
rradius 41.5604
rwrist -96.6957
rhand -55.4905 -24.9799
rfingers 7.12502
rthumb -27.8492 -52.9357
lclavicle -1.45113e-014 2.82274e-014
lhumerus -38.6156 -46.7504 107.23
lradius 22.3628
lwrist 48.9182
lhand -43.163 28.5452
lfingers 7.12502
lthumb -16.0153 57.9032
rfemur 4.71207 1.07238 27.3062
rtibia 29.4931
rfoot -16.1177 -19.9472
rtoes 0.72375
lfemur 8.45563 0.864933 -14.3234
ltibia 21.4465
lfoot -10.211 -4.8641
ltoes -12.6515
6
root 0.0705243 17.5494 2.1141 167.404 -3.74312 -175.252
lowerback 13.8515 -0.828335 2.75847
upperback 8.3155 -2.11104 2.43587
thorax 1.02454 -1.58828 1.24375
lowerneck -9.36629 -6.68152 -8.50396
upperneck 0.611773 -8.19108 8.98923
head 2.42302 -3.79073 3.65153
rclavicle 1.2424e-015 9.54166e-015
rhumerus -41.0687 74.4154 -106.515
rradius 42.1031
rwrist -95.1308
rhand -55.4888 -23.932
rfingers 7.12502
rthumb -27.8476 -51.8881
lclavicle 1.2424e-015 9.54166e-015
lhumerus -37.756 -51.8309 109.901
lradius 23.4459
lwrist 50.5636
lhand -43.75 29.1583
lfingers 7.12502
lthumb -16.5805 58.47
rfemur 4.81146 1.0379 27.3097
rtibia 29.488
rfoot -16.0254 -19.7915
rtoes 0.973131
lfemur 8.57646 0.911793 -14.2856
ltibia 21.4568
lfoot -10.1277 -4.80056
ltoes -12.8314
7
root 0.070635 17.549 2.14705 167.224 -3.65159 -175.25
lowerback 13.9334 -0.729014 2.76621
upperback 8.54969 -2.03625 2.3872
thorax 1.22874 -1.56966 1.17574
lowerneck -10.0552 -6.79146 -8.14061
upperneck 0.740065 -8.31776 8.87428
head 2.56153 -3.82994 3.52948
rclavicle 3.37934e-015 1.07344e-014
rhumerus -30.6857 75.7833 -98.2391
rradius 42.5893
rwrist -93.4249
rhand -55.3145 -22.8614
rfingers 7.12502
rthumb -27.681 -50.8444
lclavicle 3.37934e-015 1.07344e-014
lhumerus -36.8247 -56.8488 111.88
lradius 24.8388
lwrist 51.9406
lhand -44.2254 29.6065
lfingers 7.12502
lthumb -17.0382 58.8793
rfemur 4.89688 1.03501 27.2994
rtibia 29.4737
rfoot -15.9332 -19.6905
rtoes 1.12906
lfemur 8.66376 0.997358 -14.2599
ltibia 21.4714
lfoot -10.04 -4.80327
ltoes -12.8124
8
root 0.0706715 17.5489 2.17962 167.047 -3.56619 -175.201
lowerback 14.0177 -0.623243 2.8003
upperback 8.73687 -1.93933 2.35754
thorax 1.38229 -1.53616 1.11143
lowerneck -10.5743 -6.68207 -7.77441
upperneck 0.83415 -8.48465 8.7236
head 2.6588 -4.07366 3.39158
rclavicle -8.24956e-015 3.37934e-014
rhumerus -18.0194 76.0502 -87.5759
rradius 42.9276
rwrist -91.5787
rhand -55.0019 -21.9739
rfingers 7.12502
rthumb -27.382 -50.0045
lclavicle -8.24956e-015 3.37934e-014
lhumerus -35.4669 -61.7236 112.926
lradius 26.4131
lwrist 53.108
lhand -44.6439 29.6962
lfingers 7.12502
lthumb -17.4409 58.9338
rfemur 4.9786 1.05085 27.3425
rtibia 29.4484
rfoot -15.8536 -19.6076
rtoes 1.37635
lfemur 8.73591 1.06148 -14.1935
ltibia 21.4927
lfoot -9.95692 -4.78209
ltoes -12.9878
9
root 0.0711954 17.5505 2.211 166.921 -3.47864 -175.177
lowerback 14.0674 -0.531604 2.76365
upperback 8.85408 -1.85105 2.33877
thorax 1.48122 -1.50342 1.09994
lowerneck -10.9008 -6.74076 -7.41712
upperneck 0.945362 -8.59253 8.5771
head 2.73023 -4.12397 3.27186
rclavicle -3.03147e-015 3.22031e-014
rhumerus -5.46464 75.3082 -76.9899
rradius 43.1216
rwrist -89.5751
rhand -54.5211 -21.3071
rfingers 7.12502
rthumb -26.9221 -49.4096
lclavicle -3.03147e-015 3.22031e-014
lhumerus -33.259 -66.349 112.748
lradius 27.9889
lwrist 54.0106
lhand -44.9155 29.4583
lfingers 7.12502
lthumb -17.7024 58.6725
rfemur 5.0195 1.14811 27.3859
rtibia 29.4089
rfoot -15.777 -19.5912
rtoes 1.67329
lfemur 8.74852 1.13368 -14.1525
ltibia 21.5306
lfoot -9.8899 -4.73743
ltoes -13.2624
10
root 0.0707043 17.5517 2.24212 166.816 -3.41249 -175.15
lowerback 14.1002 -0.448359 2.72656
upperback 8.92663 -1.76202 2.32521
thorax 1.54147 -1.46623 1.09469
lowerneck -11.0788 -6.78717 -7.04708
upperneck 1.02407 -8.69001 8.39899
head 2.76495 -4.17231 3.14637
rclavicle -8.69683e-016 3.43897e-014
rhumerus 5.39565 73.7273 -68.042
rradius 43.3037
rwrist -87.5212
rhand -53.9797 -20.9845
rfingers 7.12502
rthumb -26.4038 -49.1658
lclavicle -8.69683e-016 3.43897e-014
lhumerus -29.6981 -70.7542 110.833
lradius 29.7358
lwrist 54.8722
lhand -45.2615 28.8397
lfingers 7.12502
lthumb -18.0353 58.0235
rfemur 5.03719 1.15621 27.3972
rtibia 29.3624
rfoot -15.684 -19.5044
rtoes 1.91983
lfemur 8.73173 1.17139 -14.1185
ltibia 21.5763
lfoot -9.81265 -4.71414
ltoes -13.2541
11
root 0.071235 17.5536 2.27092 166.719 -3.3616 -175.103
lowerback 14.13 -0.380224 2.69554
upperback 8.93847 -1.67619 2.31688
thorax 1.53832 -1.42526 1.09338
lowerneck -11.0896 -6.82457 -6.75499
upperneck 1.12947 -8.77553 8.28965
head 2.78692 -4.21387 3.05937
rclavicle 1.16041e-014 -2.56432e-014
rhumerus 14.1643 71.6912 -61.1254
rradius 43.4888
rwrist -85.5363
rhand -53.4331 -20.6303
rfingers 7.12502
rthumb -25.8805 -48.8891
lclavicle 1.16041e-014 -2.56432e-014
lhumerus -23.9427 -74.9933 106.351
lradius 31.6936
lwrist 55.7239
lhand -45.7457 28.1181
lfingers 7.12502
lthumb -18.5011 57.2583
rfemur 5.05105 1.19324 27.4516
rtibia 29.3161
rfoot -15.5734 -19.4932
rtoes 2.04726
lfemur 8.70419 1.31681 -14.0242
ltibia 21.6221
lfoot -9.72378 -4.80456
ltoes -13.4449
12
root 0.0710984 17.5558 2.29841 166.622 -3.30155 -175.058
lowerback 14.1202 -0.319109 2.68403
upperback 8.9208 -1.58913 2.30157
thorax 1.52391 -1.379 1.07314
lowerneck -10.9 -6.84975 -6.48816
upperneck 1.18704 -8.8447 8.16656
head 2.7617 -4.25108 2.98054
rclavicle 1.60767e-014 2.68359e-015
rhumerus 21.5218 69.4546 -55.6104
rradius 43.5808
rwrist -83.4967
rhand -52.7685 -20.4255
rfingers 7.12502
rthumb -25.244 -48.7756
lclavicle 1.60767e-014 2.68359e-015
lhumerus -12.8364 -76.7065 97.1408
lradius 32.0721
lwrist 54.2926
lhand -45.6118 26.6336
lfingers 7.12502
lthumb -18.3723 55.786
rfemur 5.07404 1.21095 27.4956
rtibia 29.2708
rfoot -15.4765 -19.4487
rtoes 2.19489
lfemur 8.68349 1.36557 -13.963
ltibia 21.6697
lfoot -9.63592 -4.80197
ltoes -13.4631
13
root 0.0719873 17.557 2.32432 166.54 -3.26355 -175.028
lowerback 14.0062 -0.272671 2.63026
upperback 8.90346 -1.52617 2.29941
thorax 1.56587 -1.34449 1.09031
lowerneck -10.526 -6.85303 -6.3248
upperneck 1.18184 -8.87672 8.09442
head 2.69264 -4.27248 2.94291
rclavicle 3.15571e-015 -1.83876e-014
rhumerus 27.986 67.1314 -50.9559
rradius 43.6182
rwrist -81.4471
rhand -52.0572 -20.052
rfingers 7.12502
rthumb -24.5624 -48.4965
lclavicle 3.15571e-015 -1.83876e-014
lhumerus 1.33596 -77.7284 84.7942
lradius 32.4619
lwrist 52.8636
lhand -45.6332 25.1118
lfingers 7.12502
lthumb -18.3928 54.2623
rfemur 5.08484 1.25228 27.535
rtibia 29.2207
rfoot -15.3772 -19.4487
rtoes 2.24895
lfemur 8.6427 1.43041 -13.9148
ltibia 21.7275
lfoot -9.57011 -4.81918
ltoes -13.6413
